<svg width="1920" height="369" viewBox="0 0 1920 369" fill="none" xmlns="http://www.w3.org/2000/svg">
<path fill-rule="evenodd" clip-rule="evenodd" d="M0 109.121L40 80.4694C80 51.818 160 -6.23892 240 0.546949C320 8.08681 400 80.4694 480 130.986C560 181.504 640 210.909 720 189.043C800 167.178 880 94.7952 960 94.7952C1040 94.7952 1120 167.178 1200 196.583C1280 225.235 1360 210.909 1440 225.235C1520 239.56 1600 283.292 1680 261.426C1760 239.56 1840 152.852 1880 109.121L1920 66.1437V370H1880C1840 370 1760 370 1680 370C1600 370 1520 370 1440 370C1360 370 1280 370 1200 370C1120 370 1040 370 960 370C880 370 800 370 720 370C640 370 560 370 480 370C400 370 320 370 240 370C160 370 80 370 40 370H0V109.121Z" fill="#89CAF5"/>
</svg>
